<mxfile host="app.diagrams.net" modified="2021-01-25T11:10:33.206Z" agent="5.0 (Windows NT 10.0; Win64; x64) AppleWebKit/537.36 (KHTML, like Gecko) Chrome/87.0.4280.141 Safari/537.36" etag="RK9mbtp_-oD8dJLq5ixX" version="14.2.5" type="github">
  <diagram id="IugoOS4I6vvep11LJcxn" name="Page-1">
    <mxGraphModel dx="496" dy="275" grid="1" gridSize="10" guides="1" tooltips="1" connect="1" arrows="1" fold="1" page="1" pageScale="1" pageWidth="850" pageHeight="1100" math="0" shadow="0">
      <root>
        <mxCell id="0" />
        <mxCell id="1" parent="0" />
        <mxCell id="fa_hQyOrS9Wy1m3olr4A-1" value="" style="html=1;points=[];perimeter=orthogonalPerimeter;" vertex="1" parent="1">
          <mxGeometry x="150" y="270" width="10" height="460" as="geometry" />
        </mxCell>
        <mxCell id="fa_hQyOrS9Wy1m3olr4A-2" value="" style="html=1;points=[];perimeter=orthogonalPerimeter;" vertex="1" parent="1">
          <mxGeometry x="360" y="270" width="10" height="460" as="geometry" />
        </mxCell>
        <mxCell id="fa_hQyOrS9Wy1m3olr4A-3" value="" style="aspect=fixed;perimeter=ellipsePerimeter;html=1;align=center;shadow=0;dashed=0;spacingTop=3;image;image=img/lib/active_directory/laptop_client.svg;" vertex="1" parent="1">
          <mxGeometry x="133" y="210" width="45" height="50" as="geometry" />
        </mxCell>
        <mxCell id="fa_hQyOrS9Wy1m3olr4A-4" value="" style="aspect=fixed;perimeter=ellipsePerimeter;html=1;align=center;shadow=0;dashed=0;spacingTop=3;image;image=img/lib/active_directory/windows_server.svg;" vertex="1" parent="1">
          <mxGeometry x="345" y="210" width="41" height="50" as="geometry" />
        </mxCell>
        <mxCell id="fa_hQyOrS9Wy1m3olr4A-8" value="" style="endArrow=classic;html=1;strokeWidth=2;entryX=1.031;entryY=0.242;entryDx=0;entryDy=0;entryPerimeter=0;exitX=0;exitY=0.158;exitDx=0;exitDy=0;exitPerimeter=0;strokeColor=#33FF33;" edge="1" parent="1" source="fa_hQyOrS9Wy1m3olr4A-2" target="fa_hQyOrS9Wy1m3olr4A-1">
          <mxGeometry width="50" height="50" relative="1" as="geometry">
            <mxPoint x="365" y="334" as="sourcePoint" />
            <mxPoint x="300" y="470" as="targetPoint" />
          </mxGeometry>
        </mxCell>
        <mxCell id="fa_hQyOrS9Wy1m3olr4A-9" value="" style="endArrow=classic;html=1;strokeColor=#007FFF;strokeWidth=2;" edge="1" parent="1">
          <mxGeometry width="50" height="50" relative="1" as="geometry">
            <mxPoint x="163" y="293" as="sourcePoint" />
            <mxPoint x="360" y="317" as="targetPoint" />
          </mxGeometry>
        </mxCell>
        <mxCell id="fa_hQyOrS9Wy1m3olr4A-12" value="" style="endArrow=classic;html=1;strokeWidth=2;entryX=1.2;entryY=0.263;entryDx=0;entryDy=0;entryPerimeter=0;exitX=0;exitY=0.158;exitDx=0;exitDy=0;exitPerimeter=0;strokeColor=#33FF33;" edge="1" parent="1">
          <mxGeometry width="50" height="50" relative="1" as="geometry">
            <mxPoint x="360" y="373.99999999999994" as="sourcePoint" />
            <mxPoint x="162" y="413.90000000000003" as="targetPoint" />
          </mxGeometry>
        </mxCell>
        <mxCell id="fa_hQyOrS9Wy1m3olr4A-13" value="" style="endArrow=classic;html=1;strokeWidth=2;entryX=1.2;entryY=0.263;entryDx=0;entryDy=0;entryPerimeter=0;exitX=0;exitY=0.158;exitDx=0;exitDy=0;exitPerimeter=0;strokeColor=#33FF33;" edge="1" parent="1">
          <mxGeometry width="50" height="50" relative="1" as="geometry">
            <mxPoint x="360" y="405.99999999999994" as="sourcePoint" />
            <mxPoint x="162" y="445.90000000000003" as="targetPoint" />
          </mxGeometry>
        </mxCell>
        <mxCell id="fa_hQyOrS9Wy1m3olr4A-14" value="ClientHello" style="text;html=1;strokeColor=none;fillColor=none;align=center;verticalAlign=middle;whiteSpace=wrap;rounded=0;rotation=7;fontSize=10;" vertex="1" parent="1">
          <mxGeometry x="240" y="285" width="40" height="21" as="geometry" />
        </mxCell>
        <mxCell id="fa_hQyOrS9Wy1m3olr4A-15" value="ServerHello" style="text;html=1;strokeColor=none;fillColor=none;align=center;verticalAlign=middle;whiteSpace=wrap;rounded=0;rotation=-10;fontSize=10;" vertex="1" parent="1">
          <mxGeometry x="240" y="341" width="40" height="20" as="geometry" />
        </mxCell>
        <mxCell id="fa_hQyOrS9Wy1m3olr4A-16" value="Server Certificate" style="text;html=1;strokeColor=none;fillColor=none;align=center;verticalAlign=middle;whiteSpace=wrap;rounded=0;rotation=-10;fontSize=10;" vertex="1" parent="1">
          <mxGeometry x="220" y="374" width="80" height="20" as="geometry" />
        </mxCell>
        <mxCell id="fa_hQyOrS9Wy1m3olr4A-17" value="ServerHelloDone" style="text;html=1;strokeColor=none;fillColor=none;align=center;verticalAlign=middle;whiteSpace=wrap;rounded=0;rotation=-10;fontSize=10;" vertex="1" parent="1">
          <mxGeometry x="220" y="406" width="80" height="20" as="geometry" />
        </mxCell>
        <mxCell id="fa_hQyOrS9Wy1m3olr4A-21" value="" style="endArrow=classic;html=1;strokeColor=#007FFF;strokeWidth=2;" edge="1" parent="1">
          <mxGeometry width="50" height="50" relative="1" as="geometry">
            <mxPoint x="162.9999999999999" y="478" as="sourcePoint" />
            <mxPoint x="360" y="502" as="targetPoint" />
          </mxGeometry>
        </mxCell>
        <mxCell id="fa_hQyOrS9Wy1m3olr4A-22" value="Client Key Exchange" style="text;html=1;strokeColor=none;fillColor=none;align=center;verticalAlign=middle;whiteSpace=wrap;rounded=0;rotation=7;fontSize=10;" vertex="1" parent="1">
          <mxGeometry x="180.22" y="469.41" width="149.81" height="21" as="geometry" />
        </mxCell>
        <mxCell id="fa_hQyOrS9Wy1m3olr4A-24" value="" style="endArrow=classic;html=1;strokeColor=#007FFF;strokeWidth=2;" edge="1" parent="1">
          <mxGeometry width="50" height="50" relative="1" as="geometry">
            <mxPoint x="162.9999999999999" y="542.59" as="sourcePoint" />
            <mxPoint x="360" y="566.59" as="targetPoint" />
          </mxGeometry>
        </mxCell>
        <mxCell id="fa_hQyOrS9Wy1m3olr4A-25" value="Change Cipher Spec" style="text;html=1;strokeColor=none;fillColor=none;align=center;verticalAlign=middle;whiteSpace=wrap;rounded=0;rotation=7;fontSize=10;" vertex="1" parent="1">
          <mxGeometry x="180.22" y="534" width="149.81" height="21" as="geometry" />
        </mxCell>
        <mxCell id="fa_hQyOrS9Wy1m3olr4A-29" value="" style="endArrow=classic;html=1;strokeColor=#007FFF;strokeWidth=2;" edge="1" parent="1">
          <mxGeometry width="50" height="50" relative="1" as="geometry">
            <mxPoint x="162.9999999999999" y="588.59" as="sourcePoint" />
            <mxPoint x="360" y="612.59" as="targetPoint" />
          </mxGeometry>
        </mxCell>
        <mxCell id="fa_hQyOrS9Wy1m3olr4A-30" value="Finished" style="text;html=1;strokeColor=none;fillColor=none;align=center;verticalAlign=middle;whiteSpace=wrap;rounded=0;rotation=7;fontSize=10;" vertex="1" parent="1">
          <mxGeometry x="180.22" y="580" width="149.81" height="21" as="geometry" />
        </mxCell>
        <mxCell id="fa_hQyOrS9Wy1m3olr4A-31" value="" style="endArrow=classic;html=1;strokeWidth=2;entryX=1.2;entryY=0.263;entryDx=0;entryDy=0;entryPerimeter=0;exitX=0;exitY=0.158;exitDx=0;exitDy=0;exitPerimeter=0;strokeColor=#33FF33;" edge="1" parent="1">
          <mxGeometry width="50" height="50" relative="1" as="geometry">
            <mxPoint x="360" y="630" as="sourcePoint" />
            <mxPoint x="162" y="669.9000000000001" as="targetPoint" />
          </mxGeometry>
        </mxCell>
        <mxCell id="fa_hQyOrS9Wy1m3olr4A-32" value="Server Certificate" style="text;html=1;strokeColor=none;fillColor=none;align=center;verticalAlign=middle;whiteSpace=wrap;rounded=0;rotation=-10;fontSize=10;" vertex="1" parent="1">
          <mxGeometry x="220" y="630" width="80" height="20" as="geometry" />
        </mxCell>
        <mxCell id="fa_hQyOrS9Wy1m3olr4A-36" value="" style="endArrow=classic;html=1;strokeWidth=2;entryX=1.2;entryY=0.263;entryDx=0;entryDy=0;entryPerimeter=0;exitX=0;exitY=0.158;exitDx=0;exitDy=0;exitPerimeter=0;strokeColor=#33FF33;" edge="1" parent="1">
          <mxGeometry width="50" height="50" relative="1" as="geometry">
            <mxPoint x="360" y="669.9999999999999" as="sourcePoint" />
            <mxPoint x="162" y="709.9000000000001" as="targetPoint" />
          </mxGeometry>
        </mxCell>
        <mxCell id="fa_hQyOrS9Wy1m3olr4A-37" value="Finished" style="text;html=1;strokeColor=none;fillColor=none;align=center;verticalAlign=middle;whiteSpace=wrap;rounded=0;rotation=-10;fontSize=10;" vertex="1" parent="1">
          <mxGeometry x="220" y="670" width="80" height="20" as="geometry" />
        </mxCell>
      </root>
    </mxGraphModel>
  </diagram>
</mxfile>
